<mxfile host="app.diagrams.net" modified="2024-04-27T11:49:56.915Z" agent="Mozilla/5.0 (Windows NT 10.0; Win64; x64) AppleWebKit/537.36 (KHTML, like Gecko) Chrome/124.0.0.0 Safari/537.36" etag="0Fep124FrNtMk_YuxARw" version="24.2.8" type="device">
  <diagram name="Page-1" id="D5EtN6O1kMjCwHKMQcfe">
    <mxGraphModel dx="2085" dy="614" grid="1" gridSize="10" guides="1" tooltips="1" connect="1" arrows="1" fold="1" page="1" pageScale="1" pageWidth="850" pageHeight="1100" background="#EEF7C3" math="0" shadow="0">
      <root>
        <mxCell id="0" />
        <mxCell id="1" parent="0" />
        <mxCell id="ZBR921ufw55qmRg9aaQ5-1" value="Login&amp;nbsp;" style="rounded=0;whiteSpace=wrap;html=1;labelBackgroundColor=none;fillColor=#B2C9AB;strokeColor=#788AA3;fontColor=#46495D;" parent="1" vertex="1">
          <mxGeometry x="140" y="310" width="120" height="60" as="geometry" />
        </mxCell>
        <mxCell id="ZBR921ufw55qmRg9aaQ5-5" value="Register Page" style="rounded=0;whiteSpace=wrap;html=1;labelBackgroundColor=none;fillColor=#B2C9AB;strokeColor=#788AA3;fontColor=#46495D;" parent="1" vertex="1">
          <mxGeometry x="-120" y="310" width="120" height="60" as="geometry" />
        </mxCell>
        <mxCell id="ZBR921ufw55qmRg9aaQ5-9" value="Car Listing" style="rounded=0;whiteSpace=wrap;html=1;labelBackgroundColor=none;fillColor=#B2C9AB;strokeColor=#788AA3;fontColor=#46495D;" parent="1" vertex="1">
          <mxGeometry x="461" y="170" width="120" height="60" as="geometry" />
        </mxCell>
        <mxCell id="ZBR921ufw55qmRg9aaQ5-15" value="Car Details&amp;nbsp;" style="rounded=0;whiteSpace=wrap;html=1;labelBackgroundColor=none;fillColor=#B2C9AB;strokeColor=#788AA3;fontColor=#46495D;" parent="1" vertex="1">
          <mxGeometry x="680" y="170" width="120" height="60" as="geometry" />
        </mxCell>
        <mxCell id="ZBR921ufw55qmRg9aaQ5-24" value="Car Advertisement" style="rounded=0;whiteSpace=wrap;html=1;labelBackgroundColor=none;fillColor=#B2C9AB;strokeColor=#788AA3;fontColor=#46495D;" parent="1" vertex="1">
          <mxGeometry x="360" y="310" width="120" height="60" as="geometry" />
        </mxCell>
        <mxCell id="KWqMLyHfTzcdoeFmsYFf-1" value="Search&amp;nbsp;" style="rounded=0;whiteSpace=wrap;html=1;labelBackgroundColor=none;fillColor=#B2C9AB;strokeColor=#788AA3;fontColor=#46495D;" vertex="1" parent="1">
          <mxGeometry x="570" y="310" width="120" height="60" as="geometry" />
        </mxCell>
        <mxCell id="KWqMLyHfTzcdoeFmsYFf-7" value="Admin" style="rounded=0;whiteSpace=wrap;html=1;labelBackgroundColor=none;fillColor=#B2C9AB;strokeColor=#788AA3;fontColor=#46495D;" vertex="1" parent="1">
          <mxGeometry x="462" y="60" width="120" height="60" as="geometry" />
        </mxCell>
        <mxCell id="KWqMLyHfTzcdoeFmsYFf-9" value="" style="endArrow=classic;html=1;rounded=0;entryX=0.5;entryY=0;entryDx=0;entryDy=0;exitX=0.25;exitY=1;exitDx=0;exitDy=0;" edge="1" parent="1" source="ZBR921ufw55qmRg9aaQ5-9" target="ZBR921ufw55qmRg9aaQ5-24">
          <mxGeometry width="50" height="50" relative="1" as="geometry">
            <mxPoint x="500" y="230" as="sourcePoint" />
            <mxPoint x="340" y="210" as="targetPoint" />
          </mxGeometry>
        </mxCell>
        <mxCell id="KWqMLyHfTzcdoeFmsYFf-10" value="" style="endArrow=classic;html=1;rounded=0;" edge="1" parent="1" source="ZBR921ufw55qmRg9aaQ5-9" target="KWqMLyHfTzcdoeFmsYFf-7">
          <mxGeometry width="50" height="50" relative="1" as="geometry">
            <mxPoint x="290" y="260" as="sourcePoint" />
            <mxPoint x="400" y="120" as="targetPoint" />
          </mxGeometry>
        </mxCell>
        <mxCell id="KWqMLyHfTzcdoeFmsYFf-11" value="" style="endArrow=classic;html=1;rounded=0;entryX=0;entryY=0.5;entryDx=0;entryDy=0;" edge="1" parent="1" target="ZBR921ufw55qmRg9aaQ5-9">
          <mxGeometry width="50" height="50" relative="1" as="geometry">
            <mxPoint x="200" y="200" as="sourcePoint" />
            <mxPoint x="340" y="210" as="targetPoint" />
          </mxGeometry>
        </mxCell>
        <mxCell id="KWqMLyHfTzcdoeFmsYFf-15" value="" style="endArrow=classic;html=1;rounded=0;entryX=0.5;entryY=0;entryDx=0;entryDy=0;exitX=0.75;exitY=1;exitDx=0;exitDy=0;" edge="1" parent="1" source="ZBR921ufw55qmRg9aaQ5-9" target="KWqMLyHfTzcdoeFmsYFf-1">
          <mxGeometry width="50" height="50" relative="1" as="geometry">
            <mxPoint x="590" y="290" as="sourcePoint" />
            <mxPoint x="640" y="240" as="targetPoint" />
          </mxGeometry>
        </mxCell>
        <mxCell id="KWqMLyHfTzcdoeFmsYFf-16" value="" style="endArrow=classic;html=1;rounded=0;exitX=1;exitY=0.5;exitDx=0;exitDy=0;entryX=0;entryY=0.5;entryDx=0;entryDy=0;" edge="1" parent="1" source="ZBR921ufw55qmRg9aaQ5-5" target="ZBR921ufw55qmRg9aaQ5-1">
          <mxGeometry width="50" height="50" relative="1" as="geometry">
            <mxPoint x="40" y="380" as="sourcePoint" />
            <mxPoint x="90" y="330" as="targetPoint" />
          </mxGeometry>
        </mxCell>
        <mxCell id="KWqMLyHfTzcdoeFmsYFf-17" value="" style="endArrow=classic;html=1;rounded=0;entryX=0;entryY=0.5;entryDx=0;entryDy=0;exitX=1;exitY=0.5;exitDx=0;exitDy=0;" edge="1" parent="1" source="ZBR921ufw55qmRg9aaQ5-9" target="ZBR921ufw55qmRg9aaQ5-15">
          <mxGeometry width="50" height="50" relative="1" as="geometry">
            <mxPoint x="620" y="240" as="sourcePoint" />
            <mxPoint x="670" y="190" as="targetPoint" />
          </mxGeometry>
        </mxCell>
        <mxCell id="KWqMLyHfTzcdoeFmsYFf-18" value="" style="endArrow=none;html=1;rounded=0;exitX=0.5;exitY=0;exitDx=0;exitDy=0;" edge="1" parent="1" source="ZBR921ufw55qmRg9aaQ5-1">
          <mxGeometry width="50" height="50" relative="1" as="geometry">
            <mxPoint x="200" y="300" as="sourcePoint" />
            <mxPoint x="200" y="200" as="targetPoint" />
          </mxGeometry>
        </mxCell>
      </root>
    </mxGraphModel>
  </diagram>
</mxfile>
